<svg width="50" height="50" viewBox="0 0 50 50" fill="none" xmlns="http://www.w3.org/2000/svg">
<path d="M21.4375 8.04167L3.79168 37.5C3.42786 38.13 3.23536 38.8444 3.23332 39.5719C3.23129 40.2995 3.41979 41.0149 3.78007 41.6469C4.14035 42.279 4.65986 42.8057 5.2869 43.1747C5.91395 43.5437 6.62668 43.742 7.35418 43.75H42.6458C43.3733 43.742 44.0861 43.5437 44.7131 43.1747C45.3402 42.8057 45.8597 42.279 46.22 41.6469C46.5802 41.0149 46.7687 40.2995 46.7667 39.5719C46.7647 38.8444 46.5722 38.13 46.2083 37.5L28.5625 8.04167C28.1911 7.42939 27.6682 6.92317 27.0442 6.57184C26.4202 6.22052 25.7161 6.03595 25 6.03595C24.2839 6.03595 23.5799 6.22052 22.9559 6.57184C22.3318 6.92317 21.8089 7.42939 21.4375 8.04167Z" stroke="black" stroke-width="3" stroke-linecap="round" stroke-linejoin="round"/>
<path d="M25 18.75V27.0833" stroke="black" stroke-width="3" stroke-linecap="round" stroke-linejoin="round"/>
<path d="M25 35.4167H25.0208" stroke="black" stroke-width="3" stroke-linecap="round" stroke-linejoin="round"/>
</svg>
