<svg width="1510" height="983" viewBox="0 0 1510 983" fill="none" xmlns="http://www.w3.org/2000/svg">
<g clip-path="url(#clip0_370_643)">
<rect width="1510" height="983" fill="#D0FAFB"/>
<g filter="url(#filter0_d_370_643)">
<path d="M1406.58 466.462C1408.46 460.684 1414.67 457.522 1420.45 459.399L1608.75 520.585C1614.53 522.462 1617.69 528.668 1615.82 534.445L1554.63 722.755C1552.75 728.532 1546.55 731.694 1540.77 729.817L1352.46 668.632C1346.68 666.754 1343.52 660.549 1345.4 654.771L1406.58 466.462Z" fill="#B1F7FF"/>
</g>
<g filter="url(#filter1_d_370_643)">
<path d="M439.45 244.046C446.684 246.679 448.355 256.155 442.458 261.104L193.678 469.855C187.781 474.803 178.738 471.512 177.402 463.931L121.008 144.105C119.671 136.524 127.042 130.339 134.276 132.972L439.45 244.046Z" fill="#B1F7FF"/>
</g>
<g filter="url(#filter2_d_370_643)">
<path d="M893 809C893 966.401 765.401 1094 608 1094C450.599 1094 323 966.401 323 809C323 651.599 450.599 524 608 524C765.401 524 893 651.599 893 809Z" fill="#B1F7FF"/>
</g>
<g filter="url(#filter3_d_370_643)">
<path d="M1278 179.5C1278 196.345 1264.34 210 1247.5 210C1230.66 210 1217 196.345 1217 179.5C1217 162.655 1230.66 149 1247.5 149C1264.34 149 1278 162.655 1278 179.5Z" fill="#B1F7FF"/>
</g>
<g filter="url(#filter4_d_370_643)">
<rect x="638" y="44.1494" width="208" height="208" rx="7.3075" transform="rotate(-7.5 638 44.1494)" fill="#B1F7FF"/>
</g>
<g filter="url(#filter5_d_370_643)">
<rect x="929" y="441.149" width="208" height="208" rx="104" transform="rotate(-7.5 929 441.149)" fill="#B1F7FF"/>
</g>
<g filter="url(#filter6_d_370_643)">
<path d="M521.395 99.6537C521.698 99.305 522.265 99.4152 522.415 99.8521L542.039 156.843C542.189 157.28 541.81 157.716 541.357 157.627L482.19 146.127C481.736 146.038 481.548 145.492 481.851 145.144L521.395 99.6537Z" fill="#B1F7FF"/>
</g>
</g>
<defs>
<filter id="filter0_d_370_643" x="1328.86" y="442.858" width="303.5" height="303.5" filterUnits="userSpaceOnUse" color-interpolation-filters="sRGB">
<feFlood flood-opacity="0" result="BackgroundImageFix"/>
<feColorMatrix in="SourceAlpha" type="matrix" values="0 0 0 0 0 0 0 0 0 0 0 0 0 0 0 0 0 0 127 0" result="hardAlpha"/>
<feOffset/>
<feGaussianBlur stdDeviation="8"/>
<feColorMatrix type="matrix" values="0 0 0 0 0.298039 0 0 0 0 0.627451 0 0 0 0 0.635294 0 0 0 0.0384615 0"/>
<feBlend mode="multiply" in2="BackgroundImageFix" result="effect1_dropShadow_370_643"/>
<feBlend mode="normal" in="SourceGraphic" in2="effect1_dropShadow_370_643" result="shape"/>
</filter>
<filter id="filter1_d_370_643" x="104.85" y="116.355" width="357.183" height="371.849" filterUnits="userSpaceOnUse" color-interpolation-filters="sRGB">
<feFlood flood-opacity="0" result="BackgroundImageFix"/>
<feColorMatrix in="SourceAlpha" type="matrix" values="0 0 0 0 0 0 0 0 0 0 0 0 0 0 0 0 0 0 127 0" result="hardAlpha"/>
<feOffset/>
<feGaussianBlur stdDeviation="8"/>
<feColorMatrix type="matrix" values="0 0 0 0 0.298039 0 0 0 0 0.627451 0 0 0 0 0.635294 0 0 0 0.0384615 0"/>
<feBlend mode="multiply" in2="BackgroundImageFix" result="effect1_dropShadow_370_643"/>
<feBlend mode="normal" in="SourceGraphic" in2="effect1_dropShadow_370_643" result="shape"/>
</filter>
<filter id="filter2_d_370_643" x="307" y="508" width="602" height="602" filterUnits="userSpaceOnUse" color-interpolation-filters="sRGB">
<feFlood flood-opacity="0" result="BackgroundImageFix"/>
<feColorMatrix in="SourceAlpha" type="matrix" values="0 0 0 0 0 0 0 0 0 0 0 0 0 0 0 0 0 0 127 0" result="hardAlpha"/>
<feOffset/>
<feGaussianBlur stdDeviation="8"/>
<feColorMatrix type="matrix" values="0 0 0 0 0.298039 0 0 0 0 0.627451 0 0 0 0 0.635294 0 0 0 0.0384615 0"/>
<feBlend mode="multiply" in2="BackgroundImageFix" result="effect1_dropShadow_370_643"/>
<feBlend mode="normal" in="SourceGraphic" in2="effect1_dropShadow_370_643" result="shape"/>
</filter>
<filter id="filter3_d_370_643" x="1201" y="133" width="93" height="93" filterUnits="userSpaceOnUse" color-interpolation-filters="sRGB">
<feFlood flood-opacity="0" result="BackgroundImageFix"/>
<feColorMatrix in="SourceAlpha" type="matrix" values="0 0 0 0 0 0 0 0 0 0 0 0 0 0 0 0 0 0 127 0" result="hardAlpha"/>
<feOffset/>
<feGaussianBlur stdDeviation="8"/>
<feColorMatrix type="matrix" values="0 0 0 0 0.298039 0 0 0 0 0.627451 0 0 0 0 0.635294 0 0 0 0.0384615 0"/>
<feBlend mode="multiply" in2="BackgroundImageFix" result="effect1_dropShadow_370_643"/>
<feBlend mode="normal" in="SourceGraphic" in2="effect1_dropShadow_370_643" result="shape"/>
</filter>
<filter id="filter4_d_370_643" x="622.891" y="1.89038" width="263.589" height="263.589" filterUnits="userSpaceOnUse" color-interpolation-filters="sRGB">
<feFlood flood-opacity="0" result="BackgroundImageFix"/>
<feColorMatrix in="SourceAlpha" type="matrix" values="0 0 0 0 0 0 0 0 0 0 0 0 0 0 0 0 0 0 127 0" result="hardAlpha"/>
<feOffset/>
<feGaussianBlur stdDeviation="8"/>
<feColorMatrix type="matrix" values="0 0 0 0 0.298039 0 0 0 0 0.627451 0 0 0 0 0.635294 0 0 0 0.0384615 0"/>
<feBlend mode="multiply" in2="BackgroundImageFix" result="effect1_dropShadow_370_643"/>
<feBlend mode="normal" in="SourceGraphic" in2="effect1_dropShadow_370_643" result="shape"/>
</filter>
<filter id="filter5_d_370_643" x="925.673" y="410.673" width="240.023" height="240.024" filterUnits="userSpaceOnUse" color-interpolation-filters="sRGB">
<feFlood flood-opacity="0" result="BackgroundImageFix"/>
<feColorMatrix in="SourceAlpha" type="matrix" values="0 0 0 0 0 0 0 0 0 0 0 0 0 0 0 0 0 0 127 0" result="hardAlpha"/>
<feOffset/>
<feGaussianBlur stdDeviation="8"/>
<feColorMatrix type="matrix" values="0 0 0 0 0.298039 0 0 0 0 0.627451 0 0 0 0 0.635294 0 0 0 0.0384615 0"/>
<feBlend mode="multiply" in2="BackgroundImageFix" result="effect1_dropShadow_370_643"/>
<feBlend mode="normal" in="SourceGraphic" in2="effect1_dropShadow_370_643" result="shape"/>
</filter>
<filter id="filter6_d_370_643" x="465.703" y="83.447" width="92.3691" height="90.1919" filterUnits="userSpaceOnUse" color-interpolation-filters="sRGB">
<feFlood flood-opacity="0" result="BackgroundImageFix"/>
<feColorMatrix in="SourceAlpha" type="matrix" values="0 0 0 0 0 0 0 0 0 0 0 0 0 0 0 0 0 0 127 0" result="hardAlpha"/>
<feOffset/>
<feGaussianBlur stdDeviation="8"/>
<feColorMatrix type="matrix" values="0 0 0 0 0.298039 0 0 0 0 0.627451 0 0 0 0 0.635294 0 0 0 0.0384615 0"/>
<feBlend mode="multiply" in2="BackgroundImageFix" result="effect1_dropShadow_370_643"/>
<feBlend mode="normal" in="SourceGraphic" in2="effect1_dropShadow_370_643" result="shape"/>
</filter>
<clipPath id="clip0_370_643">
<rect width="1510" height="983" fill="white"/>
</clipPath>
</defs>
</svg>
