<svg width="40" height="40" viewBox="0 0 40 40" fill="none" xmlns="http://www.w3.org/2000/svg">
<g clip-path="url(#clip0_54_2125)">
<path d="M20 25C22.7614 25 25 22.7614 25 20C25 17.2386 22.7614 15 20 15C17.2386 15 15 17.2386 15 20C15 22.7614 17.2386 25 20 25Z" stroke="black" stroke-width="4" stroke-linecap="round" stroke-linejoin="round"/>
<path d="M32.2668 24.9333C32.0449 25.436 31.9787 25.9936 32.0768 26.5343C32.1748 27.0749 32.4325 27.5738 32.8168 27.9666L32.9168 28.0666C33.2267 28.3762 33.4726 28.7438 33.6403 29.1485C33.808 29.5532 33.8944 29.9869 33.8944 30.425C33.8944 30.863 33.808 31.2968 33.6403 31.7014C33.4726 32.1061 33.2267 32.4737 32.9168 32.7833C32.6072 33.0932 32.2396 33.3391 31.8349 33.5068C31.4302 33.6746 30.9965 33.7609 30.5584 33.7609C30.1204 33.7609 29.6866 33.6746 29.282 33.5068C28.8773 33.3391 28.5097 33.0932 28.2001 32.7833L28.1001 32.6833C27.7073 32.2991 27.2084 32.0413 26.6677 31.9433C26.1271 31.8453 25.5695 31.9115 25.0668 32.1333C24.5738 32.3446 24.1534 32.6954 23.8573 33.1425C23.5612 33.5897 23.4022 34.1137 23.4001 34.65V34.9333C23.4001 35.8174 23.0489 36.6652 22.4238 37.2903C21.7987 37.9155 20.9508 38.2666 20.0668 38.2666C19.1827 38.2666 18.3349 37.9155 17.7097 37.2903C17.0846 36.6652 16.7334 35.8174 16.7334 34.9333V34.7833C16.7205 34.2317 16.542 33.6966 16.2209 33.2478C15.8999 32.799 15.4513 32.4571 14.9334 32.2666C14.4307 32.0448 13.8731 31.9786 13.3325 32.0766C12.7918 32.1747 12.2929 32.4324 11.9001 32.8166L11.8001 32.9166C11.4905 33.2266 11.1229 33.4724 10.7182 33.6402C10.3136 33.8079 9.87982 33.8943 9.44176 33.8943C9.00371 33.8943 8.56996 33.8079 8.1653 33.6402C7.76064 33.4724 7.39301 33.2266 7.08343 32.9166C6.77351 32.6071 6.52765 32.2394 6.3599 31.8348C6.19215 31.4301 6.10581 30.9964 6.10581 30.5583C6.10581 30.1203 6.19215 29.6865 6.3599 29.2818C6.52765 28.8772 6.77351 28.5096 7.08343 28.2L7.18343 28.1C7.56766 27.7072 7.82541 27.2083 7.92344 26.6676C8.02147 26.127 7.95529 25.5693 7.73343 25.0666C7.52216 24.5737 7.17136 24.1533 6.72421 23.8572C6.27706 23.561 5.75308 23.4021 5.21676 23.4H4.93343C4.04938 23.4 3.20153 23.0488 2.57641 22.4237C1.95129 21.7985 1.6001 20.9507 1.6001 20.0666C1.6001 19.1826 1.95129 18.3347 2.57641 17.7096C3.20153 17.0845 4.04938 16.7333 4.93343 16.7333H5.08343C5.63509 16.7204 6.17011 16.5418 6.61893 16.2208C7.06775 15.8998 7.40962 15.4512 7.6001 14.9333C7.82196 14.4306 7.88814 13.873 7.79011 13.3323C7.69207 12.7917 7.43433 12.2928 7.0501 11.9L6.9501 11.8C6.64018 11.4904 6.39431 11.1228 6.22657 10.7181C6.05882 10.3134 5.97248 9.87969 5.97248 9.44164C5.97248 9.00359 6.05882 8.56984 6.22657 8.16517C6.39431 7.76051 6.64018 7.39289 6.9501 7.08331C7.25967 6.77339 7.6273 6.52752 8.03196 6.35978C8.43662 6.19203 8.87038 6.10569 9.30843 6.10569C9.74648 6.10569 10.1802 6.19203 10.5849 6.35978C10.9896 6.52752 11.3572 6.77339 11.6668 7.08331L11.7668 7.18331C12.1596 7.56754 12.6585 7.82529 13.1991 7.92332C13.7398 8.02135 14.2974 7.95517 14.8001 7.73331H14.9334C15.4264 7.52204 15.8468 7.17123 16.1429 6.72408C16.439 6.27693 16.598 5.75295 16.6001 5.21664V4.93331C16.6001 4.04925 16.9513 3.20141 17.5764 2.57629C18.2015 1.95117 19.0494 1.59998 19.9334 1.59998C20.8175 1.59998 21.6653 1.95117 22.2905 2.57629C22.9156 3.20141 23.2668 4.04925 23.2668 4.93331V5.08331C23.2689 5.61962 23.4278 6.1436 23.7239 6.59075C24.0201 7.0379 24.4405 7.3887 24.9334 7.59998C25.4361 7.82183 25.9938 7.88801 26.5344 7.78998C27.0751 7.69195 27.574 7.4342 27.9668 7.04998L28.0668 6.94998C28.3763 6.64005 28.744 6.39419 29.1486 6.22644C29.5533 6.0587 29.987 5.97235 30.4251 5.97235C30.8632 5.97235 31.2969 6.0587 31.7016 6.22644C32.1062 6.39419 32.4739 6.64005 32.7834 6.94998C33.0934 7.25955 33.3392 7.62718 33.507 8.03184C33.6747 8.4365 33.7611 8.87026 33.7611 9.30831C33.7611 9.74636 33.6747 10.1801 33.507 10.5848C33.3392 10.9894 33.0934 11.3571 32.7834 11.6666L32.6834 11.7666C32.2992 12.1594 32.0415 12.6583 31.9434 13.199C31.8454 13.7397 31.9116 14.2973 32.1334 14.8V14.9333C32.3447 15.4263 32.6955 15.8467 33.1427 16.1428C33.5898 16.4389 34.1138 16.5978 34.6501 16.6H34.9334C35.8175 16.6 36.6653 16.9512 37.2905 17.5763C37.9156 18.2014 38.2668 19.0493 38.2668 19.9333C38.2668 20.8174 37.9156 21.6652 37.2905 22.2903C36.6653 22.9155 35.8175 23.2666 34.9334 23.2666H34.7834C34.2471 23.2688 33.7231 23.4277 33.276 23.7238C32.8288 24.0199 32.478 24.4404 32.2668 24.9333Z" stroke="black" stroke-width="4" stroke-linecap="round" stroke-linejoin="round"/>
</g>
<defs>
<clipPath id="clip0_54_2125">
<rect width="40" height="40" fill="white"/>
</clipPath>
</defs>
</svg>
